<?xml version="1.0" encoding="UTF-8" standalone="no"?>
<!DOCTYPE svg PUBLIC "-//W3C//DTD SVG 1.1//EN"
 "http://www.w3.org/Graphics/SVG/1.1/DTD/svg11.dtd">
<!-- Generated by graphviz version 14.0.2 (20251019.1705)
 -->
<!-- Title: B Pages: 1 -->
<svg width="544pt" height="188pt"
 viewBox="0.00 0.00 544.00 188.00" xmlns="http://www.w3.org/2000/svg" xmlns:xlink="http://www.w3.org/1999/xlink">
<g id="graph0" class="graph" transform="scale(1 1) rotate(0) translate(4 184)">
<title>B</title>
<polygon fill="white" stroke="none" points="-4,4 -4,-184 540.02,-184 540.02,4 -4,4"/>
<!-- screener -->
<g id="node1" class="node">
<title>screener</title>
<ellipse fill="none" stroke="black" cx="64.15" cy="-90" rx="64.15" ry="18"/>
<text xml:space="preserve" text-anchor="middle" x="64.15" y="-84.95" font-family="Times New Roman,serif" font-size="14.00">TAG Screener</text>
</g>
<!-- fast -->
<g id="node2" class="node">
<title>fast</title>
<ellipse fill="none" stroke="black" cx="179.15" cy="-90" rx="32.93" ry="18"/>
<text xml:space="preserve" text-anchor="middle" x="179.15" y="-84.95" font-family="Times New Roman,serif" font-size="14.00">FAST</text>
</g>
<!-- screener&#45;&gt;fast -->
<!-- spec -->
<g id="node6" class="node">
<title>spec</title>
<ellipse fill="#9aff9a" stroke="black" cx="239.15" cy="-18" rx="85.13" ry="18"/>
<text xml:space="preserve" text-anchor="middle" x="239.15" y="-12.95" font-family="Times New Roman,serif" font-size="14.00">Your spec/explainer</text>
</g>
<!-- screener&#45;&gt;spec -->
<g id="edge7" class="edge">
<title>screener&#45;&gt;spec</title>
<path fill="none" stroke="black" d="M99.98,-74.67C125.96,-64.27 161.41,-50.09 190.03,-38.65"/>
<polygon fill="black" stroke="black" points="191.24,-41.93 199.22,-34.97 188.64,-35.43 191.24,-41.93"/>
</g>
<!-- checklist -->
<g id="node3" class="node">
<title>checklist</title>
<ellipse fill="none" stroke="black" cx="300.15" cy="-90" rx="70.29" ry="18"/>
<text xml:space="preserve" text-anchor="middle" x="300.15" y="-84.95" font-family="Times New Roman,serif" font-size="14.00">FAST Checklist</text>
</g>
<!-- fast&#45;&gt;checklist -->
<!-- fast&#45;&gt;spec -->
<g id="edge8" class="edge">
<title>fast&#45;&gt;spec</title>
<path fill="none" stroke="black" d="M192.76,-73.12C200.07,-64.59 209.24,-53.89 217.5,-44.25"/>
<polygon fill="black" stroke="black" points="219.91,-46.82 223.76,-36.95 214.6,-42.26 219.91,-46.82"/>
</g>
<!-- apa -->
<g id="node4" class="node">
<title>apa</title>
<ellipse fill="none" stroke="black" cx="462.15" cy="-90" rx="73.87" ry="18"/>
<text xml:space="preserve" text-anchor="middle" x="462.15" y="-84.95" font-family="Times New Roman,serif" font-size="14.00">APA WG review</text>
</g>
<!-- checklist&#45;&gt;apa -->
<!-- checklist&#45;&gt;spec -->
<g id="edge9" class="edge">
<title>checklist&#45;&gt;spec</title>
<path fill="none" stroke="black" d="M285.38,-72.05C278.11,-63.71 269.2,-53.49 261.15,-44.25"/>
<polygon fill="black" stroke="black" points="263.98,-42.17 254.77,-36.93 258.7,-46.77 263.98,-42.17"/>
</g>
<!-- apa&#45;&gt;screener -->
<g id="edge15" class="edge">
<title>apa&#45;&gt;screener</title>
<path fill="none" stroke="grey" stroke-dasharray="5,2" d="M428.96,-106.45C411.85,-114.04 390.37,-122.18 370.15,-126 272.32,-144.46 243.58,-146.45 146.15,-126 131.74,-122.98 116.77,-117.26 103.63,-111.27"/>
<polygon fill="grey" stroke="grey" points="105.42,-108.25 94.89,-107.09 102.41,-114.56 105.42,-108.25"/>
</g>
<!-- apa&#45;&gt;fast -->
<g id="edge13" class="edge">
<title>apa&#45;&gt;fast</title>
<path fill="none" stroke="grey" stroke-dasharray="5,2" d="M428.96,-106.45C411.85,-114.04 390.37,-122.18 370.15,-126 309,-137.54 289.45,-144.82 230.15,-126 221.14,-123.14 212.35,-118.05 204.68,-112.59"/>
<polygon fill="grey" stroke="grey" points="206.88,-109.86 196.82,-106.53 202.6,-115.41 206.88,-109.86"/>
</g>
<!-- apa&#45;&gt;checklist -->
<g id="edge14" class="edge">
<title>apa&#45;&gt;checklist</title>
<path fill="none" stroke="grey" stroke-dasharray="5,2" d="M406.35,-102.19C392.7,-103.61 379.05,-103.87 365.4,-102.99"/>
<polygon fill="grey" stroke="grey" points="365.71,-99.5 355.44,-102.11 365.1,-106.48 365.71,-99.5"/>
</g>
<!-- reqs -->
<g id="node5" class="node">
<title>reqs</title>
<ellipse fill="none" stroke="black" cx="300.15" cy="-162" rx="165.48" ry="18"/>
<text xml:space="preserve" text-anchor="middle" x="300.15" y="-156.95" font-family="Times New Roman,serif" font-size="14.00">Accessibility User Requirements (RQTF)</text>
</g>
<!-- apa&#45;&gt;reqs -->
<g id="edge12" class="edge">
<title>apa&#45;&gt;reqs</title>
<path fill="none" stroke="grey" stroke-dasharray="5,2" d="M431.36,-106.79C409.9,-116.55 380.81,-129.2 355.43,-139.82"/>
<polygon fill="grey" stroke="grey" points="354.1,-136.58 346.21,-143.65 356.78,-143.04 354.1,-136.58"/>
</g>
<!-- apa&#45;&gt;spec -->
<g id="edge10" class="edge">
<title>apa&#45;&gt;spec</title>
<path fill="none" stroke="black" d="M414.79,-75.83C378.8,-65.02 329.39,-49.58 292.1,-37.52"/>
<polygon fill="black" stroke="black" points="293.47,-34.28 282.87,-34.52 291.3,-40.94 293.47,-34.28"/>
</g>
<!-- reqs&#45;&gt;fast -->
<g id="edge4" class="edge">
<title>reqs&#45;&gt;fast</title>
<path fill="none" stroke="black" d="M270.55,-143.88C252.48,-133.43 229.39,-120.07 210.94,-109.39"/>
<polygon fill="black" stroke="black" points="212.95,-106.51 202.54,-104.53 209.44,-112.57 212.95,-106.51"/>
</g>
<!-- reqs&#45;&gt;checklist -->
<g id="edge5" class="edge">
<title>reqs&#45;&gt;checklist</title>
<path fill="none" stroke="black" d="M300.15,-143.7C300.15,-136.41 300.15,-127.73 300.15,-119.54"/>
<polygon fill="black" stroke="black" points="303.65,-119.62 300.15,-109.62 296.65,-119.62 303.65,-119.62"/>
</g>
<!-- reqs&#45;&gt;apa -->
<g id="edge6" class="edge">
<title>reqs&#45;&gt;apa</title>
<path fill="none" stroke="black" d="M333.48,-144.05C356.16,-133.79 386.46,-120.67 412,-110.04"/>
<polygon fill="black" stroke="black" points="413.31,-113.29 421.22,-106.23 410.64,-106.82 413.31,-113.29"/>
</g>
<!-- spec&#45;&gt;apa -->
<g id="edge11" class="edge">
<title>spec&#45;&gt;apa</title>
<path fill="none" stroke="grey" stroke-dasharray="5,2" d="M289.02,-32.92C325.32,-43.86 374.23,-59.16 410.85,-71.02"/>
<polygon fill="grey" stroke="grey" points="409.76,-74.35 420.35,-74.11 411.93,-67.69 409.76,-74.35"/>
</g>
</g>
</svg>
